<svg width="137" height="91" viewBox="0 0 137 91" fill="none" xmlns="http://www.w3.org/2000/svg">
<circle cx="2.80228" cy="85.2872" r="2.75" transform="rotate(-88.9002 2.80228 85.2872)" fill="#E1E1E1"/>
<circle cx="35.7962" cy="85.9205" r="2.75" transform="rotate(-88.9002 35.7962 85.9205)" fill="#E1E1E1"/>
<circle cx="68.7901" cy="86.5538" r="2.75" transform="rotate(-88.9002 68.7901 86.5538)" fill="#E1E1E1"/>
<circle cx="101.784" cy="87.1876" r="2.75" transform="rotate(-88.9002 101.784 87.1876)" fill="#E1E1E1"/>
<circle cx="3.11893" cy="68.7901" r="2.75" transform="rotate(-88.9002 3.11893 68.7901)" fill="#E1E1E1"/>
<circle cx="36.1128" cy="69.4234" r="2.75" transform="rotate(-88.9002 36.1128 69.4234)" fill="#E1E1E1"/>
<circle cx="69.1067" cy="70.0567" r="2.75" transform="rotate(-88.9002 69.1067 70.0567)" fill="#E1E1E1"/>
<circle cx="102.101" cy="70.6905" r="2.75" transform="rotate(-88.9002 102.101 70.6905)" fill="#E1E1E1"/>
<circle cx="3.4357" cy="52.293" r="2.75" transform="rotate(-88.9002 3.4357 52.293)" fill="#E1E1E1"/>
<circle cx="36.4296" cy="52.9263" r="2.75" transform="rotate(-88.9002 36.4296 52.9263)" fill="#E1E1E1"/>
<circle cx="69.4235" cy="53.5601" r="2.75" transform="rotate(-88.9002 69.4235 53.5601)" fill="#E1E1E1"/>
<circle cx="102.418" cy="54.1934" r="2.75" transform="rotate(-88.9002 102.418 54.1934)" fill="#E1E1E1"/>
<circle cx="3.75247" cy="35.796" r="2.75" transform="rotate(-88.9002 3.75247 35.796)" fill="#E1E1E1"/>
<circle cx="36.7464" cy="36.4298" r="2.75" transform="rotate(-88.9002 36.7464 36.4298)" fill="#E1E1E1"/>
<circle cx="69.7403" cy="37.0631" r="2.75" transform="rotate(-88.9002 69.7403 37.0631)" fill="#E1E1E1"/>
<circle cx="102.734" cy="37.6964" r="2.75" transform="rotate(-88.9002 102.734 37.6964)" fill="#E1E1E1"/>
<circle cx="4.06912" cy="19.2994" r="2.75" transform="rotate(-88.9002 4.06912 19.2994)" fill="#E1E1E1"/>
<circle cx="37.063" cy="19.9327" r="2.75" transform="rotate(-88.9002 37.063 19.9327)" fill="#E1E1E1"/>
<circle cx="70.0569" cy="20.566" r="2.75" transform="rotate(-88.9002 70.0569 20.566)" fill="#E1E1E1"/>
<circle cx="103.051" cy="21.1993" r="2.75" transform="rotate(-88.9002 103.051 21.1993)" fill="#E1E1E1"/>
<circle cx="4.38578" cy="2.80232" r="2.75" transform="rotate(-88.9002 4.38578 2.80232)" fill="#E1E1E1"/>
<circle cx="37.3797" cy="3.43562" r="2.75" transform="rotate(-88.9002 37.3797 3.43562)" fill="#E1E1E1"/>
<circle cx="70.3737" cy="4.06892" r="2.75" transform="rotate(-88.9002 70.3737 4.06892)" fill="#E1E1E1"/>
<circle cx="103.368" cy="4.70271" r="2.75" transform="rotate(-88.9002 103.368 4.70271)" fill="#E1E1E1"/>
<circle cx="20.8828" cy="3.11921" r="2.75" transform="rotate(-88.9002 20.8828 3.11921)" fill="#E1E1E1"/>
<circle cx="53.8767" cy="3.75251" r="2.75" transform="rotate(-88.9002 53.8767 3.75251)" fill="#E1E1E1"/>
<circle cx="86.8706" cy="4.38581" r="2.75" transform="rotate(-88.9002 86.8706 4.38581)" fill="#E1E1E1"/>
<circle cx="119.865" cy="5.01911" r="2.75" transform="rotate(-88.9002 119.865 5.01911)" fill="#E1E1E1"/>
<circle cx="133.362" cy="5.27839" r="2.75" transform="rotate(-88.9002 133.362 5.27839)" fill="#E1E1E1"/>
<circle cx="20.5661" cy="19.6158" r="2.75" transform="rotate(-88.9002 20.5661 19.6158)" fill="#E1E1E1"/>
<circle cx="53.56" cy="20.2496" r="2.75" transform="rotate(-88.9002 53.56 20.2496)" fill="#E1E1E1"/>
<circle cx="86.554" cy="20.8829" r="2.75" transform="rotate(-88.9002 86.554 20.8829)" fill="#E1E1E1"/>
<circle cx="119.548" cy="21.5162" r="2.75" transform="rotate(-88.9002 119.548 21.5162)" fill="#E1E1E1"/>
<circle cx="133.045" cy="21.7755" r="2.75" transform="rotate(-88.9002 133.045 21.7755)" fill="#E1E1E1"/>
<circle cx="20.2493" cy="36.1129" r="2.75" transform="rotate(-88.9002 20.2493 36.1129)" fill="#E1E1E1"/>
<circle cx="53.2432" cy="36.7462" r="2.75" transform="rotate(-88.9002 53.2432 36.7462)" fill="#E1E1E1"/>
<circle cx="86.2372" cy="37.38" r="2.75" transform="rotate(-88.9002 86.2372 37.38)" fill="#E1E1E1"/>
<circle cx="119.231" cy="38.0133" r="2.75" transform="rotate(-88.9002 119.231 38.0133)" fill="#E1E1E1"/>
<circle cx="132.729" cy="38.2725" r="2.75" transform="rotate(-88.9002 132.729 38.2725)" fill="#E1E1E1"/>
<circle cx="19.9326" cy="52.6099" r="2.75" transform="rotate(-88.9002 19.9326 52.6099)" fill="#E1E1E1"/>
<circle cx="52.9265" cy="53.2432" r="2.75" transform="rotate(-88.9002 52.9265 53.2432)" fill="#E1E1E1"/>
<circle cx="85.9204" cy="53.8765" r="2.75" transform="rotate(-88.9002 85.9204 53.8765)" fill="#E1E1E1"/>
<circle cx="118.914" cy="54.5103" r="2.75" transform="rotate(-88.9002 118.914 54.5103)" fill="#E1E1E1"/>
<circle cx="132.412" cy="54.7691" r="2.75" transform="rotate(-88.9002 132.412 54.7691)" fill="#E1E1E1"/>
<circle cx="19.616" cy="69.107" r="2.75" transform="rotate(-88.9002 19.616 69.107)" fill="#E1E1E1"/>
<circle cx="52.6099" cy="69.7403" r="2.75" transform="rotate(-88.9002 52.6099 69.7403)" fill="#E1E1E1"/>
<circle cx="85.6038" cy="70.3736" r="2.75" transform="rotate(-88.9002 85.6038 70.3736)" fill="#E1E1E1"/>
<circle cx="118.598" cy="71.0069" r="2.75" transform="rotate(-88.9002 118.598 71.0069)" fill="#E1E1E1"/>
<circle cx="132.095" cy="71.2662" r="2.75" transform="rotate(-88.9002 132.095 71.2662)" fill="#E1E1E1"/>
<circle cx="19.2992" cy="85.6036" r="2.75" transform="rotate(-88.9002 19.2992 85.6036)" fill="#E1E1E1"/>
<circle cx="52.2931" cy="86.2374" r="2.75" transform="rotate(-88.9002 52.2931 86.2374)" fill="#E1E1E1"/>
<circle cx="85.2871" cy="86.8707" r="2.75" transform="rotate(-88.9002 85.2871 86.8707)" fill="#E1E1E1"/>
<circle cx="118.281" cy="87.504" r="2.75" transform="rotate(-88.9002 118.281 87.504)" fill="#E1E1E1"/>
<circle cx="131.778" cy="87.7633" r="2.75" transform="rotate(-88.9002 131.778 87.7633)" fill="#E1E1E1"/>
</svg>
