<svg width="79" height="81" viewBox="0 0 79 81" fill="none" xmlns="http://www.w3.org/2000/svg">
<ellipse cx="2.5" cy="2.08333" rx="2.5" ry="2.08333" fill="#D7D995"/>
<ellipse cx="17.5" cy="2.08333" rx="2.5" ry="2.08333" fill="#D7D995"/>
<circle cx="31.5" cy="2.5" r="2.5" fill="#D7D995"/>
<circle cx="46.5" cy="2.5" r="2.5" fill="#D7D995"/>
<ellipse cx="62" cy="2.5" rx="3" ry="2.5" fill="#D7D995"/>
<ellipse cx="76" cy="2.5" rx="3" ry="2.5" fill="#D7D995"/>
<circle cx="62" cy="16" r="3" fill="#D7D995"/>
<circle cx="76" cy="16" r="3" fill="#D7D995"/>
<ellipse cx="46.0833" cy="15.5" rx="2.08333" ry="2.5" fill="#D7D995"/>
<ellipse cx="31.0833" cy="15.5" rx="2.08333" ry="2.5" fill="#D7D995"/>
<circle cx="18" cy="16" r="3" fill="#D7D995"/>
<circle cx="3" cy="16" r="3" fill="#D7D995"/>
<ellipse cx="3" cy="31.5" rx="3" ry="2.5" fill="#D7D995"/>
<ellipse cx="17.5" cy="31.0833" rx="2.5" ry="2.08333" fill="#D7D995"/>
<circle cx="31.5" cy="31.5" r="2.5" fill="#D7D995"/>
<circle cx="46.5" cy="31.5" r="2.5" fill="#D7D995"/>
<ellipse cx="62" cy="31.5" rx="3" ry="2.5" fill="#D7D995"/>
<ellipse cx="76" cy="31.5" rx="3" ry="2.5" fill="#D7D995"/>
<ellipse cx="62" cy="45.5" rx="3" ry="2.5" fill="#D7D995"/>
<ellipse cx="76" cy="45.5" rx="3" ry="2.5" fill="#D7D995"/>
<circle cx="46.5" cy="45.5" r="2.5" fill="#D7D995"/>
<circle cx="31.5" cy="45.5" r="2.5" fill="#D7D995"/>
<ellipse cx="18" cy="45.5" rx="3" ry="2.5" fill="#D7D995"/>
<ellipse cx="3" cy="45.5" rx="3" ry="2.5" fill="#D7D995"/>
<ellipse cx="3" cy="62.5" rx="3" ry="2.5" fill="#D7D995"/>
<ellipse cx="18" cy="62.5" rx="3" ry="2.5" fill="#D7D995"/>
<circle cx="31.5" cy="62.5" r="2.5" fill="#D7D995"/>
<circle cx="46.5" cy="62.5" r="2.5" fill="#D7D995"/>
<ellipse cx="61.5" cy="62.0833" rx="2.5" ry="2.08333" fill="#D7D995"/>
<ellipse cx="76" cy="62.5" rx="3" ry="2.5" fill="#D7D995"/>
<circle cx="62" cy="78" r="3" fill="#D7D995"/>
<circle cx="76" cy="78" r="3" fill="#D7D995"/>
<ellipse cx="46.5" cy="78" rx="2.5" ry="3" fill="#D7D995"/>
<ellipse cx="31.5" cy="78" rx="2.5" ry="3" fill="#D7D995"/>
<circle cx="18" cy="78" r="3" fill="#D7D995"/>
<circle cx="3" cy="78" r="3" fill="#D7D995"/>
</svg>
