<svg width="239" height="32" viewBox="0 0 239 32" fill="none" xmlns="http://www.w3.org/2000/svg">
<path d="M230.326 21.1919H216.834V22.9932H220.689V25.6953H224.544L231.29 24.7946L232.254 25.6953L236.108 27.4966H239V29.298H237.072V32C150.655 29.6229 104.08 29.298 30.8382 31.0993L9.63661 32V29.298H12.5277V27.4966H9.63661V25.6953H1.92693V22.9932L-0.000488281 18.4898V15.7878H9.63661L8.6729 13.9864H18.31L21.2011 13.0858H29.8745V11.2844H25.056L22.1648 10.3837L21.2011 9.48306L19.2737 8.58238L21.2011 6.78102H25.056L27.9471 4.97967H31.8019H40.4753V2.27763C109.066 -1.36931 148.909 -0.0675508 219.102 2.2258L220.689 2.27763V4.97967L222.616 6.78102L224.544 4.97967H230.326V8.58238H234.181V11.2844H232.254V16.6885H230.326V21.1919Z" fill="#AE0F0F"/>
</svg>
